<?xml version="1.0" encoding="UTF-8"?>
<svg id="Camada_1" xmlns="http://www.w3.org/2000/svg" version="1.1" viewBox="0 0 715.2 226.1">
  <!-- Generator: Adobe Illustrator 29.2.1, SVG Export Plug-In . SVG Version: 2.1.0 Build 116)  -->
  <defs>
    <style>
      .st0, .st1 {
        fill: #1d1339;
      }

      .st2, .st1 {
        fill-rule: evenodd;
      }

      .st2, .st3 {
        fill: #00ff96;
      }
    </style>
  </defs>
  <g>
    <path class="st1" d="M83.1,45c3.1-1.2,7.2-1.1,10.4,0,7.9-.2,4.1-16.9,18.7-14.1-1.8,2.5-6.3.2-8.5,5.2,9.5,6.3,18.8,16.5,27.9,14.9,6-1.1,9.1-6.4,8.6-9.2-.2-1.2-1.7-1.1-1.5.3.2,1.1-.6,3.1-3.4,3.5-8.4,1.5-19.6-30.8-43.2-26.7-13,2.3-22.1,18.6-9,26h0ZM131.5,80.6c-1,6.9-4.1,12.3-12.4,14.3.9,4.8,1.7,9.5,2.6,14.3,4.6.9,9.2,1.8,13.8,2.7,1.1-6.3,2.2-12.6,3.3-19-1.5.8-2.9,1.6-4.4,2.4,2.1-6.7.2-11.1-2.9-14.7h0ZM66.6,137.3c3.9,1.7,7.5,3.8,11.1,6.1,2.2-7.1,4.4-14.2,6.5-21.3-5.2-.4-13.2-4.7-19.3-4.7s-8.3,2.3-11.4,8.1c-.3,0-.6,0-.9,0,0-3.4,1.2-7.6,2-11.5-4.4.9-8.8,1.7-13.2,2.6,0,2.6.2,5.2.2,7.8h-3.9c0,7.1.9,14.1,4.2,21,4.1-2.3,7.5-3.2,10.1-3.7-.2-10.3.2-16.2,4.6-16.5,2,0,3.9,0,5.8,0,0,.1,0,.2,0,.4,0,3.3,2.7,5.9,5.9,5.9s5-1.8,5.7-4.2c1.3.3,2.5.7,3.8,1.1-1.4,5.4-5.4,8.1-11.3,8.9h0ZM88.4,153.1c-1.1-2.1-2.8-3.2-5.8-3.2-8.9,0-12.1,11.5-21.7,11.5s-13.6-4-18-11.9c2.4,8.1,10.3,18.8,25.4,18.8s17.7-4.7,20.1-9.2c2.5,4.5,9.3,9.2,20.1,9.2s23-10.6,25.4-18.8c-4.4,7.9-13.2,11.9-18,11.9-9.6,0-12.8-11.5-21.7-11.5s-4.7,1.1-5.8,3.2h0ZM88.4,172.6c-6.5,1.8-11.9,2.6-19.6,2.7,2.3,3.7,4.7,7.4,7,11.1.4-1.3.7-2.5,1.1-3.8,3.8,2.5,7.7,4.9,11.5,7.4,3.8-2.5,7.7-4.9,11.5-7.4.4,1.3.7,2.5,1.1,3.8,2.3-3.7,4.7-7.4,7-11.1-7.7,0-13.1-.9-19.6-2.7h0ZM110.2,137.3c-3.9,1.7-7.5,3.8-11,6.1-2.2-7.1-4.4-14.2-6.5-21.3,5.2-.4,13.2-4.7,19.3-4.7s8.3,2.3,11.4,8.1c.3,0,.6,0,.9,0,0-3.4-1.2-7.6-2-11.5,4.4.9,8.8,1.7,13.2,2.6,0,2.6-.2,5.2-.2,7.8h3.9c0,7.1-.9,14.1-4.2,21-4.1-2.3-7.5-3.2-10.1-3.7.2-10.3-.2-16.2-4.6-16.5-2,0-3.9,0-5.8,0,0,.1,0,.2,0,.4,0,3.3-2.7,5.9-5.9,5.9s-5-1.8-5.7-4.2c-1.3.3-2.5.7-3.8,1.1,1.4,5.4,5.4,8.1,11.3,8.9h0ZM45.2,80.6c1,6.9,4.1,12.3,12.4,14.3-.9,4.8-1.7,9.5-2.6,14.3-4.6.9-9.2,1.8-13.8,2.7-1.1-6.3-2.2-12.6-3.3-19,1.5.8,2.9,1.6,4.4,2.4-2.1-6.7-.2-11.1,2.9-14.7h0ZM70.5,93.3c-9.6-9.1-11.4-18-6.8-26.8-7.1,3.9-13.2,7.9-13.2,13.8-.2,6.4,9.2,9.9,19.9,13h0ZM88.4,59.5c12.8,0,22.2,6.9,22.2,15.8s-6,11.2-22.2,22.2c-16.2-10.9-22.2-16.3-22.2-22.2,0-8.9,9.4-15.8,22.2-15.8h0ZM106.3,93.3c9.6-9.1,11.4-18,6.8-26.8,7.1,3.9,13.2,7.9,13.2,13.8.2,6.4-9.2,9.9-19.9,13Z"/>
    <path class="st2" d="M88.4,57.4c-5.7,0-8.9,1.1-11.8,2.3-1,.6-1.9-1.2-1-2.1,2.3-2.3,5.6-5.9,12.8-5.9s10.4,3.5,12.8,5.9c1,1,0,2.7-1,2.1-2.9-1.2-6.1-2.3-11.8-2.3h0ZM88.4,49.3c5,0,7.3,2.1,9.9,3.2,1.5.9,2.1-.6.8-1.8-2-2-4.6-4.9-10.7-4.9s-8.7,2.8-10.7,4.9c-1.3,1.3-.7,2.7.8,1.8,2.5-1,4.9-3.2,9.9-3.2Z"/>
    <path class="st2" d="M88.4,114.7c3.2,0,5.9-2.6,5.9-5.9s-2.6-5.9-5.9-5.9-5.9,2.6-5.9,5.9,2.6,5.9,5.9,5.9Z"/>
    <path class="st2" d="M36.4,150.7c-.9.4-1.7,1-2.4,1.6-1.5,1.5-2.4,3.5-2.4,5.7s.9,4.2,2.4,5.7c1.5,1.5,3.5,2.4,5.7,2.4s3.3-.5,4.6-1.4c.9,1,1.9,1.9,3,2.8-2.1,1.7-4.7,2.7-7.6,2.7s-6.4-1.4-8.6-3.5c-2.2-2.2-3.5-5.2-3.5-8.6s1.4-6.4,3.5-8.6c1.2-1.2,2.5-2.1,4.1-2.7l1.2,3.9Z"/>
    <path class="st2" d="M140.4,150.7c.9.4,1.7,1,2.4,1.6,1.5,1.5,2.4,3.5,2.4,5.7s-.9,4.2-2.4,5.7c-1.5,1.5-3.5,2.4-5.7,2.4s-3.3-.5-4.6-1.4c-.9,1-1.9,1.9-3,2.8,2.1,1.7,4.7,2.7,7.6,2.7s6.4-1.4,8.6-3.5c2.2-2.2,3.5-5.2,3.5-8.6s-1.4-6.4-3.5-8.6c-1.2-1.2-2.5-2.1-4.1-2.7l-1.2,3.9Z"/>
  </g>
  <g>
    <path class="st0" d="M214.2,160.9c-.3.2-.6.3-1,.3h-34.3c-.4,0-.7-.1-1-.3l-4.4-3.5c-.4-.3-.6-.8-.6-1.3l2.8-67.7c0-.5.3-1,.7-1.3l4.6-3.5c.3-.2.6-.3,1-.3h34.3c.4,0,.7.1,1,.3l4.4,3.5c.4.3.6.8.6,1.3l-2.8,67.7c0,.5-.3,1-.7,1.3l-4.6,3.5ZM190.7,100.4l-1.8,43.7c0,.9.7,1.6,1.6,1.6h12.3c.9,0,1.7-.7,1.7-1.6l1.8-43.7c0-.9-.7-1.6-1.6-1.6h-12.3c-.9,0-1.7.7-1.7,1.6Z"/>
    <path class="st0" d="M230,83.2h40.5c.4,0,.7.1,1,.3l4.4,3.5c.4.3.6.8.6,1.3l-2.8,67.7c0,.5-.3,1-.7,1.3l-4.6,3.5c-.3.2-.6.3-1,.3h-40.5l3.2-78ZM260.4,100.4c0-.9-.7-1.6-1.6-1.6h-13.9l-1.9,46.9h13.9c.9,0,1.7-.7,1.7-1.6l1.8-43.7Z"/>
    <path class="st0" d="M284,83.2h40.5c.4,0,.7.1,1,.3l4.4,3.5c.4.3.6.8.6,1.3l-2.8,67.7c0,.5-.3,1-.7,1.3l-4.6,3.5c-.3.2-.6.3-1,.3h-40.5l3.2-78ZM314.4,100.4c0-.9-.7-1.6-1.6-1.6h-13.9l-1.9,46.9h13.9c.9,0,1.7-.7,1.7-1.6l1.8-43.7Z"/>
    <path class="st0" d="M383.7,87.1c.4.3.6.8.6,1.3l-.7,16.6c0,.9-.8,1.6-1.7,1.6h-12.3c-.9,0-1.6-.7-1.6-1.6l.2-4.6c0-.9-.7-1.6-1.6-1.6h-12.3c-.9,0-1.7.7-1.7,1.6l-.5,12.5c0,.9.7,1.6,1.6,1.6h23.3c.4,0,.7.1,1,.3l4.4,3.5c.4.3.6.8.6,1.3l-1.5,36.5c0,.5-.3,1-.7,1.3l-5.1,3.9h-35.5l-4.8-3.9c-.4-.3-.6-.8-.6-1.3l.7-16.6c0-.9.8-1.6,1.7-1.6h12.3c.9,0,1.6.7,1.6,1.6l-.2,4.6c0,.9.7,1.6,1.6,1.6h12.3c.9,0,1.7-.7,1.7-1.6l.5-12.5c0-.9-.7-1.6-1.6-1.6h-23.3c-.4,0-.7-.1-1-.3l-4.4-3.5c-.4-.3-.6-.8-.6-1.3l1.5-36.5c0-.5.3-1,.7-1.3l4.6-3.5c.3-.2.6-.3,1-.3h34.3c.4,0,.7.1,1,.3l4.4,3.5Z"/>
  </g>
  <g>
    <path class="st3" d="M441.2,156.1c0,.5-.3,1-.7,1.3l-4.6,3.5c-.3.2-.6.3-1,.3h-34.3c-.4,0-.7-.1-1-.3l-4.4-3.5c-.4-.3-.6-.8-.6-1.3l2.8-67.7c0-.5.3-1,.7-1.3l4.6-3.5c.3-.2.6-.3,1-.3h34.3c.4,0,.7.1,1,.3l4.4,3.5c.4.3.6.8.6,1.3l-.7,16.5c0,.9-.8,1.6-1.7,1.6h-12.3c-.9,0-1.6-.7-1.6-1.6l.2-4.5c0-.9-.7-1.6-1.6-1.6h-12.3c-.9,0-1.7.7-1.7,1.6l-1.8,43.7c0,.9.7,1.6,1.6,1.6h12.3c.9,0,1.7-.7,1.7-1.6l.5-12.5c0-.9-.7-1.6-1.6-1.6h-4.5c-.9,0-1.6-.7-1.6-1.6l.5-12.3c0-.9.8-1.6,1.7-1.6h20c.9,0,1.6.7,1.6,1.6l-1.6,40Z"/>
    <path class="st3" d="M473.1,128.4c0,.9-.8,1.6-1.7,1.6h-4.5c-.9,0-1.7.7-1.7,1.6l-.5,12.5c0,.9.7,1.6,1.6,1.6h12.3c.9,0,1.7-.7,1.7-1.6l.2-4.5c0-.9.8-1.6,1.7-1.6h12.3c.9,0,1.6.7,1.6,1.6l-.7,16.5c0,.5-.3,1-.7,1.3l-4.6,3.5c-.3.2-.6.3-1,.3h-38.8c-.9,0-1.6-.7-1.6-1.6l3.1-74.7c0-.9.8-1.6,1.7-1.6h38.8c.4,0,.7.1,1,.3l4.4,3.5c.4.3.6.8.6,1.3l-.7,16.5c0,.9-.8,1.6-1.7,1.6h-12.3c-.9,0-1.6-.7-1.6-1.6l.2-4.5c0-.9-.7-1.6-1.6-1.6h-12.3c-.9,0-1.7.7-1.7,1.6l-.5,12.5c0,.9.7,1.6,1.6,1.6h4.5c.9,0,1.6.7,1.6,1.6l-.5,12.3Z"/>
    <path class="st3" d="M520.1,83.2c.7,0,1.2.4,1.5,1l10.8,28.9c.3.7,1,1.1,1.8,1,.8-.2,1.3-.8,1.4-1.6l1.1-27.6c0-.9.8-1.6,1.7-1.6h12.3c.9,0,1.6.7,1.6,1.6l-3.1,74.7c0,.9-.8,1.6-1.7,1.6h-12.8c-.7,0-1.2-.4-1.5-1l-10.8-28.9c-.3-.7-1-1.1-1.8-1-.8.2-1.3.8-1.4,1.6l-1.1,27.7c0,.9-.8,1.6-1.7,1.6h-12.3c-.9,0-1.6-.7-1.6-1.6l3.1-74.7c0-.9.8-1.6,1.7-1.6h12.8Z"/>
    <path class="st3" d="M573.7,83.2c.9,0,1.6.7,1.6,1.6l-3.1,74.7c0,.9-.8,1.6-1.7,1.6h-12.3c-.9,0-1.6-.7-1.6-1.6l3.1-74.7c0-.9.8-1.6,1.7-1.6h12.3Z"/>
    <path class="st3" d="M596.7,83.2c.9,0,1.6.7,1.6,1.6l-2.4,59.2c0,.9.7,1.6,1.6,1.6h12.3c.9,0,1.7-.7,1.7-1.6l2.4-59.2c0-.9.8-1.6,1.7-1.6h12.3c.9,0,1.6.7,1.6,1.6l-2.9,71.2c0,.5-.3,1-.7,1.3l-4.6,3.5c-.3.2-.6.3-1,.3h-34.3c-.4,0-.7-.1-1-.3l-4.4-3.5c-.4-.3-.6-.8-.6-1.3l2.9-71.2c0-.9.8-1.6,1.7-1.6h12.3Z"/>
    <path class="st3" d="M682.6,87.1c.4.3.6.8.6,1.3l-.7,16.6c0,.9-.8,1.6-1.7,1.6h-12.3c-.9,0-1.6-.7-1.6-1.6l.2-4.6c0-.9-.7-1.6-1.6-1.6h-12.3c-.9,0-1.7.7-1.7,1.6l-.5,12.5c0,.9.7,1.6,1.6,1.6h23.3c.4,0,.7.1,1,.3l4.4,3.5c.4.3.6.8.6,1.3l-1.5,36.5c0,.5-.3,1-.7,1.3l-5.1,3.9h-35.5l-4.8-3.9c-.4-.3-.6-.8-.6-1.3l.7-16.6c0-.9.8-1.6,1.7-1.6h12.3c.9,0,1.6.7,1.6,1.6l-.2,4.6c0,.9.7,1.6,1.6,1.6h12.3c.9,0,1.7-.7,1.7-1.6l.5-12.5c0-.9-.7-1.6-1.6-1.6h-23.3c-.4,0-.7-.1-1-.3l-4.4-3.5c-.4-.3-.6-.8-.6-1.3l1.5-36.5c0-.5.3-1,.7-1.3l4.6-3.5c.3-.2.6-.3,1-.3h34.3c.4,0,.7.1,1,.3l4.4,3.5Z"/>
  </g>
</svg>